# Blender v3.0.1 OBJ File: ''
# www.blender.org
mtllib pistol.mtl
o Cube
v 1.270505 5.949368 12.501076
v 1.270505 3.408357 12.501076
v -1.270505 5.949368 12.501076
v -1.270505 3.408357 12.501076
v 1.599715 5.778578 10.501076
v 1.099715 6.278578 10.501076
v 1.519556 6.198419 10.988055
v 1.099715 6.278578 -1.434154
v 1.599715 5.778578 -1.434154
v -1.099715 6.278578 10.501076
v -1.599715 5.778578 10.501076
v -1.519556 6.198419 10.988055
v -1.599715 5.778578 -1.434154
v -1.099715 6.278578 -1.434154
v -1.599715 3.579147 10.501076
v -1.099715 3.079147 10.501076
v -1.519556 3.159307 10.988055
v -1.099715 3.079147 -1.434154
v -1.599715 3.579147 -1.434154
v 1.099715 3.079147 10.501076
v 1.599715 3.579147 10.501076
v 1.519556 3.159307 10.988055
v 1.599715 3.579147 -1.434154
v 1.099715 3.079147 -1.434154
v 1.599715 5.778578 1.549654
v 1.099715 6.278578 1.549654
v -1.599715 5.778578 1.549654
v -1.099715 6.278578 1.549654
v -1.099715 3.079147 1.549654
v -1.599715 3.579147 1.549654
v 1.099715 3.079147 1.549654
v 1.599715 3.579147 1.549654
v 0.855784 -2.855371 1.218731
v 0.855784 -2.855371 -1.103230
v -0.855784 -2.855371 -1.103230
v -0.855784 -2.855371 1.218731
vt 0.375000 0.750000
vt 0.625000 0.750000
vt 0.625000 1.000000
vt 0.375000 1.000000
vt 0.625000 0.560872
vt 0.664069 0.500000
vt 0.835931 0.500000
vt 0.875000 0.560872
vt 0.875000 0.750000
vt 0.375000 0.289069
vt 0.414069 0.250000
vt 0.585931 0.250000
vt 0.625000 0.289069
vt 0.625000 0.460931
vt 0.585931 0.500000
vt 0.414069 0.500000
vt 0.375000 0.460931
vt 0.335931 0.500000
vt 0.335931 0.500000
vt 0.335931 0.500000
vt 0.335931 0.500000
vt 0.835931 0.500000
vt 0.664069 0.500000
vt 0.664069 0.500000
vt 0.835931 0.500000
vt 0.414069 0.250000
vt 0.585931 0.250000
vt 0.585931 0.500000
vt 0.625000 0.500000
vt 0.585931 0.500000
vt 0.375000 0.560872
vt 0.414069 0.500000
vt 0.626110 0.239984
vt 0.585931 0.250000
vt 0.625000 0.189128
vt 0.625000 0.250000
vt 0.625000 0.250000
vt 0.375000 0.000000
vt 0.625000 0.000000
vt 0.414069 0.250000
vt 0.375000 0.189128
vt 0.123890 0.510016
vt 0.164069 0.500000
vt 0.125000 0.560872
vt 0.164069 0.500000
vt 0.125000 0.500000
vt 0.125000 0.500000
vt 0.414069 0.500000
vt 0.335931 0.500000
vt 0.375000 0.500000
vt 0.125000 0.750000
vt 0.164069 0.500000
vt 0.125000 0.500000
vt 0.625000 0.250000
vt 0.164069 0.500000
vt 0.164069 0.500000
vt 0.375000 0.460931
vt 0.375000 0.289069
vn 0.0000 0.0000 1.0000
vn 0.0000 0.9867 0.1624
vn -0.0000 0.0000 -1.0000
vn 0.9992 -0.0411 0.0000
vn 0.0000 1.0000 0.0000
vn -1.0000 0.0000 0.0000
vn 0.6342 0.6342 -0.4423
vn 0.7071 0.7071 0.0000
vn 0.9867 0.0000 0.1624
vn -0.6342 0.6342 -0.4423
vn -0.7071 0.7071 0.0000
vn -0.9867 0.0000 0.1624
vn -0.6342 -0.6342 -0.4423
vn -0.7071 -0.7071 0.0000
vn 1.0000 0.0000 0.0000
vn 0.6342 -0.6342 -0.4423
vn 0.7071 -0.7071 0.0000
vn 0.0000 -0.9867 0.1624
vn 0.0000 -1.0000 0.0000
vn 0.0000 -0.0557 -0.9984
vn -0.9992 -0.0411 0.0000
vn 0.0000 -0.0557 0.9984
usemtl Material
s off
f 2/1/1 1/2/1 3/3/1 4/4/1
f 7/5/2 6/6/2 10/7/2 12/8/2 3/9/2 1/2/2
f 18/10/3 19/11/3 13/12/3 14/13/3 8/14/3 9/15/3 23/16/3 24/17/3
f 24/18/4 31/19/4 33/20/4 34/21/4
f 28/22/5 26/23/5 8/24/5 14/25/5
f 30/26/6 27/27/6 13/12/6 19/11/6
f 5/28/7 6/29/7 7/5/7
f 25/30/8 9/15/8 8/24/8 26/23/8
f 22/31/9 21/32/9 5/28/9 7/5/9 1/2/9 2/1/9
f 10/33/10 11/34/10 12/35/10
f 27/27/11 11/34/11 10/36/11 28/37/11
f 4/38/12 3/39/12 12/35/12 11/34/12 15/40/12 17/41/12
f 15/42/13 16/43/13 17/44/13
f 29/45/14 16/43/14 15/46/14 30/47/14
f 25/30/15 32/48/15 23/16/15 9/15/15
f 20/49/16 21/50/16 22/31/16
f 31/19/17 24/18/17 23/16/17 32/48/17
f 17/44/18 16/43/18 20/49/18 22/31/18 2/1/18 4/51/18
f 20/49/17 31/19/17 32/48/17 21/32/17
f 5/28/15 21/32/15 32/48/15 25/30/15
f 18/52/14 29/45/14 30/47/14 19/53/14
f 13/12/11 27/27/11 28/37/11 14/54/11
f 5/28/8 25/30/8 26/23/8 6/6/8
f 15/40/6 11/34/6 27/27/6 30/26/6
f 10/7/5 6/6/5 26/23/5 28/22/5
f 20/49/19 16/43/19 29/45/19 31/19/19
f 33/20/19 36/55/19 35/56/19 34/21/19
f 18/10/20 24/17/20 34/57/20 35/58/20
f 29/45/21 18/52/21 35/56/21 36/55/21
f 31/19/22 29/45/22 36/55/22 33/20/22
